<svg width="51" height="59" viewBox="0 0 51 59" fill="none" xmlns="http://www.w3.org/2000/svg">
<path d="M49.022 10.0721C49.022 8.27639 47.5663 6.82069 45.7705 6.82069C45.141 6.82069 44.5586 7.00757 44.0605 7.3174C44.2495 6.905 44.3612 6.45114 44.3612 5.96778C44.3612 4.17205 42.9055 2.71635 41.1098 2.71635C39.7033 2.71635 38.5166 3.61422 38.0635 4.86477C37.5302 4.48258 36.8811 4.25144 36.175 4.25144C35.5287 4.25144 34.9294 4.44534 34.4235 4.77063C34.4509 4.60061 34.4762 4.42918 34.4762 4.25144C34.4762 2.4557 33.0205 1 31.2248 1C30.0157 1 28.9724 1.66813 28.4125 2.6475C27.9446 2.38685 27.4141 2.22596 26.8408 2.22596C25.0451 2.22596 23.5894 3.68166 23.5894 5.4774C23.5894 5.59824 23.6119 5.71205 23.6252 5.82938C23.1882 5.61159 22.7028 5.4774 22.1815 5.4774C22.0958 5.4774 22.015 5.49637 21.9307 5.50269C22.0915 5.11699 22.1815 4.69475 22.1815 4.25144C22.1815 2.4557 20.7258 1 18.93 1C17.1343 1 15.6786 2.4557 15.6786 4.25144C15.6786 4.2964 15.6898 4.33785 15.692 4.38211C15.4151 4.30553 15.1299 4.25144 14.8292 4.25144C14.6515 4.25144 14.48 4.27603 14.31 4.30413C14.31 4.28656 14.3156 4.2697 14.3156 4.25144C14.3156 2.4557 12.8599 1 11.0642 1C9.26847 1 7.81277 2.4557 7.81277 4.25144C6.01703 4.25144 4.56133 5.70714 4.56133 7.50287C4.56133 7.68413 4.58592 7.85837 4.61473 8.0312C3.04803 8.26515 1.84314 9.60282 1.84314 11.2349C1.84314 12.7805 2.92367 14.0683 4.36883 14.3985L2.75576 16.523L23.5922 21.6404L41.114 18.2288L47.3204 15.3504L47.0042 13.0805C48.1852 12.5943 49.022 11.4323 49.022 10.0721Z" fill="#E8E462" stroke="#191919" stroke-miterlimit="10"/>
<path d="M9.10473 58.0323C8.4085 58.0323 7.81975 57.5335 7.70453 56.8464L0.454139 13.3117C0.385288 12.8993 0.500507 12.4799 0.770992 12.1609C1.04148 11.8419 1.43631 11.6593 1.85434 11.6593H49.1456C49.5643 11.6593 49.9585 11.8419 50.2289 12.1609C50.4994 12.4799 50.6146 12.8993 50.5458 13.3117L43.2961 56.8457C43.1816 57.5335 42.5928 58.0323 41.8959 58.0323H9.10473Z" fill="#EFEFEF"/>
<path d="M49.1456 12.0105C49.806 12.0105 50.3076 12.6035 50.1995 13.2547L42.9491 56.788C42.8633 57.303 42.4172 57.681 41.8952 57.681H9.10476C8.58276 57.681 8.13664 57.303 8.05093 56.788L0.801237 13.254C0.693044 12.6028 1.19467 12.0098 1.85507 12.0098H49.1456V12.0105ZM49.1456 11.308H1.85507C1.33378 11.308 0.841283 11.5363 0.504055 11.9339C0.166828 12.3316 0.0228038 12.855 0.108516 13.37L7.35891 56.9032C7.50153 57.7611 8.2364 58.3835 9.10547 58.3835H41.8959C42.765 58.3835 43.4999 57.7611 43.6425 56.9032L50.8929 13.3693C50.9786 12.855 50.8346 12.3316 50.4973 11.9332C50.1601 11.5356 49.6676 11.308 49.1456 11.308Z" fill="#191919"/>
<path d="M13.1431 57.6802H8.19988L0.593994 12.0105H7.7102L13.1431 57.6802Z" fill="#A52929"/>
<path d="M23.0287 57.6802H18.0855L14.8264 12.0105H21.9426L23.0287 57.6802Z" fill="#A52929"/>
<path d="M32.9152 57.6802H27.972L29.0581 12.0105H36.1743L32.9152 57.6802Z" fill="#A52929"/>
<path d="M42.8009 57.6802H37.8577L43.2905 12.0105H50.4067L42.8009 57.6802Z" fill="#A52929"/>
<path d="M49.695 12.0105C50.0681 12.0105 50.3512 12.3449 50.2901 12.7131L42.8851 57.1765C42.8367 57.4674 42.5851 57.681 42.2901 57.681H8.71133C8.41626 57.681 8.16475 57.4674 8.11627 57.1765L0.711311 12.7131C0.650189 12.3456 0.93332 12.0105 1.30638 12.0105H49.695ZM49.695 11.308H1.30568C0.921377 11.308 0.558154 11.4766 0.309449 11.7695C0.0607434 12.0632 -0.0453427 12.4489 0.0178875 12.8283L7.42284 57.2917C7.52823 57.924 8.0699 58.3828 8.71063 58.3828H42.2894C42.9301 58.3828 43.4725 57.924 43.5772 57.2917L50.9821 12.8283C51.0453 12.4489 50.9393 12.0632 50.6906 11.7695C50.4426 11.4759 50.0793 11.308 49.695 11.308Z" fill="#191919"/>
</svg>
