<svg width="25" height="23" viewBox="0 0 25 23" fill="none" xmlns="http://www.w3.org/2000/svg">
<path d="M8.19755 16.3951C6.57623 16.3951 4.99132 15.9143 3.64324 15.0136C2.29516 14.1128 1.24446 12.8325 0.624005 11.3346C0.00355187 9.83671 -0.158787 8.18846 0.157517 6.59829C0.473822 5.00812 1.25456 3.54746 2.40101 2.40101C3.54746 1.25456 5.00812 0.473822 6.59829 0.157517C8.18846 -0.158787 9.83671 0.00355187 11.3346 0.624005C12.8325 1.24446 14.1128 2.29516 15.0136 3.64324C15.9143 4.99132 16.3951 6.57623 16.3951 8.19755C16.3951 10.3717 15.5314 12.4568 13.9941 13.9941C12.4568 15.5314 10.3717 16.3951 8.19755 16.3951ZM8.19755 1.63951C6.9005 1.63951 5.63257 2.02414 4.5541 2.74474C3.47564 3.46535 2.63508 4.48957 2.13871 5.6879C1.64235 6.88622 1.51248 8.20483 1.76552 9.47696C2.01857 10.7491 2.64316 11.9176 3.56032 12.8348C4.47748 13.7519 5.64601 14.3765 6.91814 14.6296C8.19028 14.8826 9.50888 14.7528 10.7072 14.2564C11.9055 13.76 12.9298 12.9195 13.6504 11.841C14.371 10.7625 14.7556 9.49461 14.7556 8.19755C14.7556 6.45825 14.0647 4.79019 12.8348 3.56032C11.6049 2.33045 9.93685 1.63951 8.19755 1.63951Z" fill="white"/>
<path d="M22.1334 22.74C21.5549 22.7407 20.9947 22.5375 20.5512 22.1662L15.5262 17.9526C15.2786 17.7448 15.0743 17.4903 14.9251 17.2036C14.7758 16.9169 14.6845 16.6036 14.6563 16.2816C14.5995 15.6313 14.8032 14.9851 15.2228 14.485C15.6424 13.985 16.2435 13.6721 16.8938 13.6152C17.5441 13.5584 18.1904 13.7621 18.6904 14.1817L23.7155 18.3953C24.1028 18.7196 24.3808 19.1554 24.5118 19.6432C24.6427 20.1311 24.6202 20.6475 24.4474 21.1222C24.2745 21.5969 23.9597 22.0068 23.5457 22.2962C23.1316 22.5857 22.6385 22.7406 22.1334 22.74ZM17.1083 15.2474H17.0345C16.8719 15.2611 16.7171 15.323 16.5898 15.4252C16.4626 15.5274 16.3688 15.6652 16.3203 15.821C16.2719 15.9769 16.2711 16.1436 16.318 16.2999C16.3649 16.4562 16.4574 16.595 16.5836 16.6984L21.6087 20.9119C21.6911 20.9814 21.7863 21.034 21.8889 21.0667C21.9916 21.0994 22.0997 21.1115 22.2071 21.1023C22.3144 21.0932 22.4189 21.063 22.5146 21.0134C22.6102 20.9639 22.6952 20.896 22.7646 20.8136C22.8338 20.7311 22.886 20.6358 22.9184 20.5331C22.9507 20.4304 22.9625 20.3224 22.9531 20.2151C22.9432 20.1073 22.912 20.0026 22.8613 19.9069C22.8107 19.8112 22.7416 19.7265 22.658 19.6577L17.6329 15.436C17.4854 15.3138 17.2998 15.247 17.1083 15.2474Z" fill="white"/>
<path d="M15.5753 15.5754C15.3838 15.5757 15.1982 15.509 15.0507 15.3868L13.1161 13.7883C12.9487 13.6492 12.8434 13.4492 12.8234 13.2324C12.8034 13.0157 12.8704 12.7998 13.0095 12.6324C13.1487 12.465 13.3486 12.3598 13.5654 12.3398C13.7821 12.3198 13.998 12.3867 14.1654 12.5259L16.0836 14.1244C16.1666 14.1932 16.2352 14.2777 16.2855 14.3731C16.3358 14.4685 16.3668 14.5728 16.3767 14.6802C16.3866 14.7876 16.3752 14.8958 16.3432 14.9988C16.3112 15.1018 16.2592 15.1974 16.1902 15.2802C16.1149 15.3707 16.021 15.4439 15.9149 15.4948C15.8088 15.5457 15.693 15.5732 15.5753 15.5754Z" fill="white"/>
</svg>
